<mxfile host="app.diagrams.net" modified="2023-10-26T14:21:27.688Z" agent="Mozilla/5.0 (Windows NT 10.0; Win64; x64) AppleWebKit/537.36 (KHTML, like Gecko) Chrome/118.0.0.0 Safari/537.36 Edg/118.0.2088.69" etag="uvFtAdgB0SzcO9U0aREX" version="22.0.8" type="github">
  <diagram name="第 1 页" id="J-__1-9NhXk3RZvDRJDN">
    <mxGraphModel dx="1002" dy="535" grid="1" gridSize="10" guides="1" tooltips="1" connect="1" arrows="1" fold="1" page="1" pageScale="1" pageWidth="1654" pageHeight="1169" math="0" shadow="0">
      <root>
        <mxCell id="0" />
        <mxCell id="1" parent="0" />
        <mxCell id="xScnbr2MgDTLrpjC_xbI-1" value="" style="shape=table;startSize=0;container=1;collapsible=0;childLayout=tableLayout;fontSize=16;" vertex="1" parent="1">
          <mxGeometry x="100" y="90" width="440" height="236" as="geometry" />
        </mxCell>
        <mxCell id="xScnbr2MgDTLrpjC_xbI-2" value="" style="shape=tableRow;horizontal=0;startSize=0;swimlaneHead=0;swimlaneBody=0;strokeColor=inherit;top=0;left=0;bottom=0;right=0;collapsible=0;dropTarget=0;fillColor=none;points=[[0,0.5],[1,0.5]];portConstraint=eastwest;fontSize=16;" vertex="1" parent="xScnbr2MgDTLrpjC_xbI-1">
          <mxGeometry width="440" height="47" as="geometry" />
        </mxCell>
        <mxCell id="xScnbr2MgDTLrpjC_xbI-3" value="一般用戶" style="shape=partialRectangle;html=1;whiteSpace=wrap;connectable=0;strokeColor=inherit;overflow=hidden;fillColor=none;top=0;left=0;bottom=0;right=0;pointerEvents=1;fontSize=16;" vertex="1" parent="xScnbr2MgDTLrpjC_xbI-2">
          <mxGeometry width="143" height="47" as="geometry">
            <mxRectangle width="143" height="47" as="alternateBounds" />
          </mxGeometry>
        </mxCell>
        <mxCell id="xScnbr2MgDTLrpjC_xbI-4" value="操作員" style="shape=partialRectangle;html=1;whiteSpace=wrap;connectable=0;strokeColor=inherit;overflow=hidden;fillColor=none;top=0;left=0;bottom=0;right=0;pointerEvents=1;fontSize=16;" vertex="1" parent="xScnbr2MgDTLrpjC_xbI-2">
          <mxGeometry x="143" width="161" height="47" as="geometry">
            <mxRectangle width="161" height="47" as="alternateBounds" />
          </mxGeometry>
        </mxCell>
        <mxCell id="xScnbr2MgDTLrpjC_xbI-5" value="管理員" style="shape=partialRectangle;html=1;whiteSpace=wrap;connectable=0;strokeColor=inherit;overflow=hidden;fillColor=none;top=0;left=0;bottom=0;right=0;pointerEvents=1;fontSize=16;" vertex="1" parent="xScnbr2MgDTLrpjC_xbI-2">
          <mxGeometry x="304" width="136" height="47" as="geometry">
            <mxRectangle width="136" height="47" as="alternateBounds" />
          </mxGeometry>
        </mxCell>
        <mxCell id="xScnbr2MgDTLrpjC_xbI-6" value="" style="shape=tableRow;horizontal=0;startSize=0;swimlaneHead=0;swimlaneBody=0;strokeColor=inherit;top=0;left=0;bottom=0;right=0;collapsible=0;dropTarget=0;fillColor=none;points=[[0,0.5],[1,0.5]];portConstraint=eastwest;fontSize=16;" vertex="1" parent="xScnbr2MgDTLrpjC_xbI-1">
          <mxGeometry y="47" width="440" height="48" as="geometry" />
        </mxCell>
        <mxCell id="xScnbr2MgDTLrpjC_xbI-7" value="學生餘額" style="shape=partialRectangle;html=1;whiteSpace=wrap;connectable=0;strokeColor=inherit;overflow=hidden;fillColor=none;top=0;left=0;bottom=0;right=0;pointerEvents=1;fontSize=16;" vertex="1" parent="xScnbr2MgDTLrpjC_xbI-6">
          <mxGeometry width="143" height="48" as="geometry">
            <mxRectangle width="143" height="48" as="alternateBounds" />
          </mxGeometry>
        </mxCell>
        <mxCell id="xScnbr2MgDTLrpjC_xbI-8" value="學生信息" style="shape=partialRectangle;html=1;whiteSpace=wrap;connectable=0;strokeColor=inherit;overflow=hidden;fillColor=none;top=0;left=0;bottom=0;right=0;pointerEvents=1;fontSize=16;" vertex="1" parent="xScnbr2MgDTLrpjC_xbI-6">
          <mxGeometry x="143" width="161" height="48" as="geometry">
            <mxRectangle width="161" height="48" as="alternateBounds" />
          </mxGeometry>
        </mxCell>
        <mxCell id="xScnbr2MgDTLrpjC_xbI-9" value="基本數據表" style="shape=partialRectangle;html=1;whiteSpace=wrap;connectable=0;strokeColor=inherit;overflow=hidden;fillColor=none;top=0;left=0;bottom=0;right=0;pointerEvents=1;fontSize=16;" vertex="1" parent="xScnbr2MgDTLrpjC_xbI-6">
          <mxGeometry x="304" width="136" height="48" as="geometry">
            <mxRectangle width="136" height="48" as="alternateBounds" />
          </mxGeometry>
        </mxCell>
        <mxCell id="xScnbr2MgDTLrpjC_xbI-10" value="" style="shape=tableRow;horizontal=0;startSize=0;swimlaneHead=0;swimlaneBody=0;strokeColor=inherit;top=0;left=0;bottom=0;right=0;collapsible=0;dropTarget=0;fillColor=none;points=[[0,0.5],[1,0.5]];portConstraint=eastwest;fontSize=16;" vertex="1" parent="xScnbr2MgDTLrpjC_xbI-1">
          <mxGeometry y="95" width="440" height="47" as="geometry" />
        </mxCell>
        <mxCell id="xScnbr2MgDTLrpjC_xbI-11" value="上機紀錄" style="shape=partialRectangle;html=1;whiteSpace=wrap;connectable=0;strokeColor=inherit;overflow=hidden;fillColor=none;top=0;left=0;bottom=0;right=0;pointerEvents=1;fontSize=16;" vertex="1" parent="xScnbr2MgDTLrpjC_xbI-10">
          <mxGeometry width="143" height="47" as="geometry">
            <mxRectangle width="143" height="47" as="alternateBounds" />
          </mxGeometry>
        </mxCell>
        <mxCell id="xScnbr2MgDTLrpjC_xbI-12" value="充值金額" style="shape=partialRectangle;html=1;whiteSpace=wrap;connectable=0;strokeColor=inherit;overflow=hidden;fillColor=none;top=0;left=0;bottom=0;right=0;pointerEvents=1;fontSize=16;" vertex="1" parent="xScnbr2MgDTLrpjC_xbI-10">
          <mxGeometry x="143" width="161" height="47" as="geometry">
            <mxRectangle width="161" height="47" as="alternateBounds" />
          </mxGeometry>
        </mxCell>
        <mxCell id="xScnbr2MgDTLrpjC_xbI-13" value="日帳單" style="shape=partialRectangle;html=1;whiteSpace=wrap;connectable=0;strokeColor=inherit;overflow=hidden;fillColor=none;top=0;left=0;bottom=0;right=0;pointerEvents=1;fontSize=16;" vertex="1" parent="xScnbr2MgDTLrpjC_xbI-10">
          <mxGeometry x="304" width="136" height="47" as="geometry">
            <mxRectangle width="136" height="47" as="alternateBounds" />
          </mxGeometry>
        </mxCell>
        <mxCell id="xScnbr2MgDTLrpjC_xbI-14" style="shape=tableRow;horizontal=0;startSize=0;swimlaneHead=0;swimlaneBody=0;strokeColor=inherit;top=0;left=0;bottom=0;right=0;collapsible=0;dropTarget=0;fillColor=none;points=[[0,0.5],[1,0.5]];portConstraint=eastwest;fontSize=16;" vertex="1" parent="xScnbr2MgDTLrpjC_xbI-1">
          <mxGeometry y="142" width="440" height="47" as="geometry" />
        </mxCell>
        <mxCell id="xScnbr2MgDTLrpjC_xbI-15" value="充值記錄" style="shape=partialRectangle;html=1;whiteSpace=wrap;connectable=0;strokeColor=inherit;overflow=hidden;fillColor=none;top=0;left=0;bottom=0;right=0;pointerEvents=1;fontSize=16;" vertex="1" parent="xScnbr2MgDTLrpjC_xbI-14">
          <mxGeometry width="143" height="47" as="geometry">
            <mxRectangle width="143" height="47" as="alternateBounds" />
          </mxGeometry>
        </mxCell>
        <mxCell id="xScnbr2MgDTLrpjC_xbI-16" value="退卡金額" style="shape=partialRectangle;html=1;whiteSpace=wrap;connectable=0;strokeColor=inherit;overflow=hidden;fillColor=none;top=0;left=0;bottom=0;right=0;pointerEvents=1;fontSize=16;" vertex="1" parent="xScnbr2MgDTLrpjC_xbI-14">
          <mxGeometry x="143" width="161" height="47" as="geometry">
            <mxRectangle width="161" height="47" as="alternateBounds" />
          </mxGeometry>
        </mxCell>
        <mxCell id="xScnbr2MgDTLrpjC_xbI-17" value="周帳單" style="shape=partialRectangle;html=1;whiteSpace=wrap;connectable=0;strokeColor=inherit;overflow=hidden;fillColor=none;top=0;left=0;bottom=0;right=0;pointerEvents=1;fontSize=16;" vertex="1" parent="xScnbr2MgDTLrpjC_xbI-14">
          <mxGeometry x="304" width="136" height="47" as="geometry">
            <mxRectangle width="136" height="47" as="alternateBounds" />
          </mxGeometry>
        </mxCell>
        <mxCell id="xScnbr2MgDTLrpjC_xbI-18" style="shape=tableRow;horizontal=0;startSize=0;swimlaneHead=0;swimlaneBody=0;strokeColor=inherit;top=0;left=0;bottom=0;right=0;collapsible=0;dropTarget=0;fillColor=none;points=[[0,0.5],[1,0.5]];portConstraint=eastwest;fontSize=16;" vertex="1" parent="xScnbr2MgDTLrpjC_xbI-1">
          <mxGeometry y="189" width="440" height="47" as="geometry" />
        </mxCell>
        <mxCell id="xScnbr2MgDTLrpjC_xbI-19" value="上機狀態" style="shape=partialRectangle;html=1;whiteSpace=wrap;connectable=0;strokeColor=inherit;overflow=hidden;fillColor=none;top=0;left=0;bottom=0;right=0;pointerEvents=1;fontSize=16;" vertex="1" parent="xScnbr2MgDTLrpjC_xbI-18">
          <mxGeometry width="143" height="47" as="geometry">
            <mxRectangle width="143" height="47" as="alternateBounds" />
          </mxGeometry>
        </mxCell>
        <mxCell id="xScnbr2MgDTLrpjC_xbI-20" value="操作員工作紀錄" style="shape=partialRectangle;html=1;whiteSpace=wrap;connectable=0;strokeColor=inherit;overflow=hidden;fillColor=none;top=0;left=0;bottom=0;right=0;pointerEvents=1;fontSize=16;" vertex="1" parent="xScnbr2MgDTLrpjC_xbI-18">
          <mxGeometry x="143" width="161" height="47" as="geometry">
            <mxRectangle width="161" height="47" as="alternateBounds" />
          </mxGeometry>
        </mxCell>
        <mxCell id="xScnbr2MgDTLrpjC_xbI-21" value="正在值班紀錄" style="shape=partialRectangle;html=1;whiteSpace=wrap;connectable=0;strokeColor=inherit;overflow=hidden;fillColor=none;top=0;left=0;bottom=0;right=0;pointerEvents=1;fontSize=16;" vertex="1" parent="xScnbr2MgDTLrpjC_xbI-18">
          <mxGeometry x="304" width="136" height="47" as="geometry">
            <mxRectangle width="136" height="47" as="alternateBounds" />
          </mxGeometry>
        </mxCell>
      </root>
    </mxGraphModel>
  </diagram>
</mxfile>
